# xmcd CD database file
# Copyright (C) 1993-1998 Ti Kan
#
# Track frame offsets:
#	150
#	8997
#	23535
#	36367
#	51522
#	65395
#	84295
#	106770
#	117775
#	133545
#	149125
#	164425
#	177242
#	194737
#
# Disc length: 2831 seconds
#
# Revision: 1
# Processed by: cddbd v1.4b41PL1 Copyright (c) Steve Scherf et al.
# Submitted via: xmcd 2.1 PL2
#
DISCID=c20b0d0e
DTITLE=Cold Blue Steel - Drivin' To Mexico
DYEAR=1900
DGENRE=
TTITLE0=I Vibrate
TTITLE1=Louisiana Mojo Man
TTITLE2=The Girl That Radiates
TTITLE3=Oh Baby
TTITLE4=Drivin' To Mexico
TTITLE5=Big City Woman
TTITLE6=Reconsider Baby
TTITLE7=Good Good Lovin'
TTITLE8=Pink Machinery
TTITLE9=Souhern Woman
TTITLE10=Waco Stomp
TTITLE11=Charley's Shuffle, Or 10-11 Boogie
TTITLE12=Pretty Little Lights
TTITLE13=Road Runner
EXTD=
EXTT0=
EXTT1=
EXTT2=
EXTT3=
EXTT4=
EXTT5=
EXTT6=
EXTT7=
EXTT8=
EXTT9=
EXTT10=
EXTT11=
EXTT12=
EXTT13=
PLAYORDER=
